<svg width="93" height="93" viewBox="0 0 93 93" fill="none" xmlns="http://www.w3.org/2000/svg">
<rect x="1.37695" y="1.37695" width="90.5618" height="90.5618" rx="19.5" fill="white" stroke="#C4CFE3"/>
<path d="M32.5425 53.6087C32.5425 56.5147 30.1959 58.8634 27.2924 58.8634C24.389 58.8634 22.0424 56.5147 22.0424 53.6087C22.0424 50.7027 24.389 48.354 27.2924 48.354H32.5425V53.6087ZM35.1676 53.6087C35.1676 50.7027 37.5142 48.354 40.4176 48.354C43.3211 48.354 45.6677 50.7027 45.6677 53.6087V66.7456C45.6677 69.6516 43.3211 72.0003 40.4176 72.0003C37.5142 72.0003 35.1676 69.6516 35.1676 66.7456V53.6087Z" fill="#E01E5A"/>
<path d="M40.415 32.5096C37.5116 32.5096 35.165 30.1609 35.165 27.2549C35.165 24.3488 37.5116 22.0001 40.415 22.0001C43.3185 22.0001 45.6651 24.3488 45.6651 27.2549V32.5096H40.415ZM40.415 35.1768C43.3185 35.1768 45.6651 37.5255 45.6651 40.4315C45.6651 43.3376 43.3185 45.6863 40.415 45.6863H27.2501C24.3466 45.6863 22 43.3376 22 40.4315C22 37.5255 24.3466 35.1768 27.2501 35.1768H40.415Z" fill="#36C5F0"/>
<path d="M61.4571 40.4315C61.4571 37.5255 63.8037 35.1768 66.7072 35.1768C69.6106 35.1768 71.9573 37.5255 71.9573 40.4315C71.9573 43.3376 69.6106 45.6863 66.7072 45.6863H61.4571V40.4315ZM58.8321 40.4315C58.8321 43.3376 56.4854 45.6863 53.582 45.6863C50.6785 45.6863 48.3319 43.3376 48.3319 40.4315V27.2549C48.3319 24.3488 50.6785 22.0001 53.582 22.0001C56.4854 22.0001 58.8321 24.3488 58.8321 27.2549V40.4315V40.4315Z" fill="#2EB67D"/>
<path d="M53.582 61.4908C56.4854 61.4908 58.8321 63.8395 58.8321 66.7456C58.8321 69.6516 56.4854 72.0003 53.582 72.0003C50.6785 72.0003 48.3319 69.6516 48.3319 66.7456V61.4908H53.582ZM53.582 58.8634C50.6785 58.8634 48.3319 56.5147 48.3319 53.6087C48.3319 50.7027 50.6785 48.354 53.582 48.354H66.747C69.6504 48.354 71.997 50.7027 71.997 53.6087C71.997 56.5147 69.6504 58.8634 66.747 58.8634H53.582Z" fill="#ECB22E"/>
</svg>
