<svg width="261" height="261" viewBox="0 0 261 261" fill="none" xmlns="http://www.w3.org/2000/svg">
<g filter="url(#filter0_d_208_109)">
<rect x="40.8956" y="36.4058" width="180" height="180" rx="32" fill="white"/>
<rect x="41.3956" y="36.9058" width="179" height="179" rx="31.5" stroke="white"/>
</g>
<path d="M85.1667 81.4167H176.833V170.583H85.1667V81.4167Z" fill="#2E001E"/>
<path d="M81 77.25V174.75H181V77.25H81ZM85.1667 81.4167H176.833V170.583H85.1667V81.4167Z" fill="#FF2BC2"/>
<path d="M153.625 118.208C153 117.917 152.208 117.792 151.208 117.792C145.958 117.792 142.458 121.833 142.458 128.542C142.458 136.208 146.042 139.292 150.708 139.292C151.708 139.292 152.792 139.167 153.583 138.833V118.208H153.625ZM134.958 128.875C134.958 119.167 141.208 111.583 151.458 111.583C152.333 111.583 152.792 111.583 153.625 111.667V100.833C153.625 100.583 153.833 100.417 154.042 100.417H160.75C161.083 100.417 161.167 100.542 161.167 100.75V138.833C161.167 139.958 161.167 141.375 161.375 142.917C161.375 143.208 161.375 143.25 161.125 143.375C157.625 145.042 153.958 145.792 150.458 145.792C141.417 145.792 134.958 140.208 134.958 128.875V128.875ZM120.75 122.125L132.417 144.75C132.625 145.083 132.5 145.417 132.167 145.417H124.917C124.458 145.417 124.25 145.292 124.042 144.875C121.375 139.375 118.667 133.667 115.875 127.75H115.792C113.292 133.333 110.542 139.417 107.875 144.917C107.667 145.25 107.458 145.375 107.125 145.375H100.208C99.7916 145.375 99.7499 145.042 99.9583 144.792L111.375 122.833L100.333 101C100.083 100.667 100.333 100.375 100.625 100.375H107.792C108.208 100.375 108.417 100.458 108.542 100.833C111.167 106.375 113.833 111.833 116.333 117.417H116.417C118.833 111.917 121.5 106.375 124.042 100.917C124.25 100.583 124.375 100.375 124.792 100.375H131.5C131.833 100.375 131.958 100.625 131.75 101L120.75 122.125V122.125Z" fill="#FF2BC2"/>
<defs>
<filter id="filter0_d_208_109" x="0.89563" y="0.405762" width="260" height="260" filterUnits="userSpaceOnUse" color-interpolation-filters="sRGB">
<feFlood flood-opacity="0" result="BackgroundImageFix"/>
<feColorMatrix in="SourceAlpha" type="matrix" values="0 0 0 0 0 0 0 0 0 0 0 0 0 0 0 0 0 0 127 0" result="hardAlpha"/>
<feOffset dy="4"/>
<feGaussianBlur stdDeviation="20"/>
<feComposite in2="hardAlpha" operator="out"/>
<feColorMatrix type="matrix" values="0 0 0 0 0.0367917 0 0 0 0 0.0348958 0 0 0 0 0.0484375 0 0 0 0.1 0"/>
<feBlend mode="normal" in2="BackgroundImageFix" result="effect1_dropShadow_208_109"/>
<feBlend mode="normal" in="SourceGraphic" in2="effect1_dropShadow_208_109" result="shape"/>
</filter>
</defs>
</svg>
